<?xml version="1.0" ?><!DOCTYPE svg  PUBLIC '-//W3C//DTD SVG 1.1 Tiny//EN'  'http://www.w3.org/Graphics/SVG/1.1/DTD/svg11-tiny.dtd'><svg baseProfile="tiny" height="380px" id="Layer_1" version="1.1" viewBox="0 0 380 380" width="380px" xml:space="preserve" xmlns="http://www.w3.org/2000/svg" xmlns:xlink="http://www.w3.org/1999/xlink"><g><g><path d="M190,0c104.934,0,190,85.066,190,190c0,104.935-85.066,190-190,190     C85.065,380,0,294.935,0,190C0,85.066,85.065,0,190,0L190,0z" fill="#E65C5C" fill-rule="evenodd"/><path d="M261.199,292.695v-59.663h-9.289l-7.123,6.688v28     c0,6.742-5.543,12.283-12.283,12.283H122.742c-6.738,0-12.283-5.543-12.283-12.283c0-70.464,0-99.248,0-169.712     c0-6.738,5.596-12.283,12.283-12.283h109.762c6.688,0,12.283,5.545,12.283,12.283v8.096h16.412v-18.8     c0-13.833-11.328-25.127-25.128-25.127H119.174c-13.801,0-25.127,11.297-25.127,25.127c0,65.446,0,139.946,0,205.391     c0,13.831,11.296,25.128,25.127,25.128h116.897C249.902,317.823,261.199,306.529,261.199,292.695L261.199,292.695z      M203.145,253.752l3.48-29.045h-34.17c-13.685,0-24.895-11.201-24.895-24.895v-60.488c0-13.7,11.195-24.895,24.895-24.895     h106.605c13.701,0,24.895,11.193,24.895,24.895v60.488c0,13.699-11.197,24.895-24.895,24.895h-30.447l-35.782,33.604     c-1.185,1.236-2.913,1.924-4.743,1.707C204.992,259.654,202.779,256.846,203.145,253.752L203.145,253.752z M175.004,192.125     c1.642,0.928,5.354,1.927,9.208,1.927c9.352,0,15.848-5.782,15.848-14.562c0-5.068-2.284-9.922-8.71-13.777     c-5.139-3.141-6.566-4.641-6.566-7.495c0-2.57,1.928-4.998,5.925-4.998c2.642,0,4.712,0.785,6.067,1.643l1.499-8.067     c-1.356-0.856-4.354-1.712-7.566-1.712c-9.993,0-15.133,6.424-15.133,14.133c0,4.354,2.497,9.423,9.065,13.419     c4.069,2.643,6.21,4.354,6.21,7.853c0,3.141-2.212,5.426-6.567,5.426c-2.641,0-5.996-0.785-7.923-1.856L175.004,192.125     L175.004,192.125z M237.25,193.624h8.353l-2.927-48.112h-9.852l-3.854,17.417c-1.215,6.068-2.285,11.493-2.999,16.846h-0.214     c-0.857-5.426-2.07-10.778-3.355-16.846l-3.854-17.417h-9.923l-3.427,48.112h7.995l0.856-16.704     c0.214-4.782,0.57-10.85,0.715-16.062h0.143c0.785,5.212,2.068,11.208,2.996,15.063l3.999,16.917h6.567l4.211-17.203     c0.928-3.712,2.213-9.637,3.07-14.777h0.143c-0.072,5.141,0.214,11.351,0.499,15.919L237.25,193.624L237.25,193.624z      M251.457,192.125c1.641,0.928,5.353,1.927,9.207,1.927c9.352,0,15.848-5.782,15.848-14.562c0-5.068-2.285-9.922-8.709-13.777     c-5.14-3.141-6.568-4.641-6.568-7.495c0-2.57,1.928-4.998,5.926-4.998c2.641,0,4.711,0.785,6.067,1.643l1.499-8.067     c-1.355-0.856-4.354-1.712-7.566-1.712c-9.994,0-15.133,6.424-15.133,14.133c0,4.354,2.498,9.423,9.064,13.419     c4.07,2.643,6.211,4.354,6.211,7.853c0,3.141-2.213,5.426-6.567,5.426c-2.642,0-5.997-0.785-7.923-1.856L251.457,192.125     L251.457,192.125z M164.971,77.816c-4.285,0-4.36-5.352,0-5.352h26.303c4.449,0,4.199,5.353,0,5.352H164.971L164.971,77.816z      M164.971,304.266c-3.612,0-6.541-2.93-6.541-6.541c0-3.612,2.929-6.541,6.541-6.541h26.303c3.613,0,6.542,2.929,6.542,6.541     c0,3.611-2.929,6.541-6.542,6.541H164.971L164.971,304.266z" fill="#FEFEFE" fill-rule="evenodd"/></g></g></svg>